<?xml version="1.0" encoding="UTF-8"?>
<!DOCTYPE svg PUBLIC "-//W3C//DTD SVG 1.1//EN" "http://www.w3.org/Graphics/SVG/1.1/DTD/svg11.dtd">
<!-- Creator: CorelDRAW 2020 (64-Bit) -->
<svg xmlns="http://www.w3.org/2000/svg" xml:space="preserve" width="21.1666mm" height="21.1666mm" version="1.1" shape-rendering="geometricPrecision" text-rendering="geometricPrecision" image-rendering="optimizeQuality" fill-rule="evenodd" clip-rule="evenodd"
viewBox="0 0 2116.66 2116.66"
 xmlns:xlink="http://www.w3.org/1999/xlink"
 xmlns:xodm="http://www.corel.com/coreldraw/odm/2003">
 <g id="Слой_x0020_1">
  <metadata id="CorelCorpID_0Corel-Layer"/>
  <path fill="#00CCFF" stroke="#0097BD" stroke-width="33.87" stroke-miterlimit="22.9256" d="M1329.79 337.34c79.39,29.89 152.58,72.53 217.01,125.42l320.57 -55 79.45 137.61 79.44 137.6 -207.89 250.04c6.67,40.8 10.21,82.63 10.21,125.32 0,42.67 -3.53,84.53 -10.21,125.3l207.9 250.07 -79.45 137.6 -79.45 137.61 -320.57 -55.03c-64.42,52.91 -137.61,95.52 -217.02,125.45l-112.56 304.95 -158.9 -0.02 -158.89 0 -112.56 -304.94c-79.38,-29.89 -152.57,-72.53 -217.01,-125.43l-320.57 55.01 -79.44 -137.61 -79.44 -137.6 207.88 -250.05c-6.67,-40.79 -10.21,-82.62 -10.21,-125.31 0,-42.68 3.53,-84.53 10.21,-125.3l-207.89 -250.08 79.45 -137.6 79.44 -137.61 320.57 55.04c64.42,-52.91 137.61,-95.53 217.03,-125.46l112.56 -304.94 158.89 0.01 158.89 0 112.56 304.95zm-375.14 1263.31c33.06,-57.24 106.27,-76.87 163.52,-43.8 57.26,33.05 76.87,106.26 43.82,163.5 -33.06,57.26 -106.27,76.88 -163.52,43.82 -57.26,-33.05 -76.87,-106.26 -43.82,-163.52zm0.01 -1204.36c33.07,-57.25 106.27,-76.86 163.52,-43.81 57.26,33.06 76.87,106.26 43.82,163.51 -33.06,57.26 -106.26,76.87 -163.52,43.82 -57.25,-33.06 -76.87,-106.26 -43.82,-163.52zm625.18 843.42c66.11,0 119.7,53.59 119.7,119.7 0,66.11 -53.59,119.7 -119.7,119.7 -66.11,0 -119.7,-53.59 -119.7,-119.7 0,-66.11 53.59,-119.7 119.7,-119.7zm-1043.01 0c66.11,0 119.7,53.59 119.7,119.7 0,66.11 -53.59,119.7 -119.7,119.7 -66.12,0 -119.71,-53.59 -119.71,-119.7 0,-66.11 53.59,-119.7 119.71,-119.7zm1043.01 -602.18c66.11,0 119.7,53.6 119.7,119.71 0,66.11 -53.59,119.7 -119.7,119.7 -66.11,0 -119.7,-53.59 -119.7,-119.7 0,-66.11 53.59,-119.71 119.7,-119.71zm-1043.01 0c66.11,0 119.7,53.6 119.7,119.71 0,66.11 -53.59,119.7 -119.7,119.7 -66.12,0 -119.71,-53.59 -119.71,-119.7 0,-66.11 53.59,-119.71 119.71,-119.71zm521.5 36.99c211.97,0 383.8,171.84 383.81,383.81 0,211.97 -171.84,383.79 -383.81,383.81 -211.97,0 -383.79,-171.84 -383.81,-383.81 0,-211.97 171.84,-383.8 383.81,-383.81z"/>
 </g>
</svg>
